<svg width="16" height="16" viewBox="0 0 16 16" fill="none" xmlns="http://www.w3.org/2000/svg">
<path d="M10.733 2.56C11.0921 2.20103 11.5791 1.99942 12.0869 1.99951C12.5946 1.99961 13.0815 2.2014 13.4405 2.5605C13.7995 2.91961 14.0011 3.4066 14.001 3.91436C14.0009 4.42211 13.7991 4.90903 13.44 5.268L12.707 6.002L9.99901 3.294L10.733 2.561V2.56ZM9.29301 4.001L3.33701 9.955C3.15623 10.1359 3.01997 10.3564 2.93901 10.599L2.02501 13.342C1.99556 13.4301 1.99122 13.5246 2.01248 13.615C2.03374 13.7054 2.07976 13.7881 2.14537 13.8538C2.21099 13.9196 2.29361 13.9657 2.38398 13.9871C2.47435 14.0085 2.56889 14.0043 2.65701 13.975L5.40001 13.06C5.64301 12.98 5.86301 12.843 6.04401 12.662L12 6.709L9.29201 4L9.29301 4.001Z" fill="#0066FF"/>
</svg>
