<svg width="20" height="20" viewBox="0 0 20 20" fill="none" xmlns="http://www.w3.org/2000/svg">
<path d="M10 12.5C11.3807 12.5 12.5 11.3807 12.5 10C12.5 8.61929 11.3807 7.5 10 7.5C8.61929 7.5 7.5 8.61929 7.5 10C7.5 11.3807 8.61929 12.5 10 12.5Z" stroke="white" stroke-width="1.5"/>
<path d="M3.05084 8.86669C3.44501 9.11335 3.69834 9.53502 3.69834 10C3.69834 10.465 3.44501 10.8867 3.05084 11.1334C2.78334 11.3025 2.61001 11.4367 2.48751 11.5967C2.35425 11.7704 2.25652 11.9686 2.1999 12.1801C2.14328 12.3916 2.12887 12.6121 2.15751 12.8292C2.20084 13.1575 2.39501 13.4942 2.78251 14.1667C3.17168 14.8392 3.36584 15.175 3.62834 15.3775C3.80204 15.5108 4.00029 15.6085 4.21176 15.6651C4.42324 15.7218 4.6438 15.7362 4.86084 15.7075C5.06084 15.6809 5.26334 15.5992 5.54334 15.4509C5.74373 15.3412 5.9687 15.2843 6.19712 15.2854C6.42555 15.2866 6.64992 15.3458 6.84918 15.4575C7.25168 15.6909 7.49084 16.12 7.50751 16.585C7.51918 16.9017 7.54918 17.1184 7.62668 17.3042C7.71044 17.5065 7.83326 17.6904 7.98811 17.8453C8.14297 18.0001 8.32683 18.1229 8.52918 18.2067C8.83501 18.3334 9.22334 18.3334 10 18.3334C10.7767 18.3334 11.165 18.3334 11.4708 18.2067C11.6732 18.1229 11.857 18.0001 12.0119 17.8453C12.1668 17.6904 12.2896 17.5065 12.3733 17.3042C12.45 17.1184 12.4808 16.9017 12.4925 16.585C12.5092 16.12 12.7483 15.69 13.1508 15.4575C13.3501 15.3458 13.5745 15.2866 13.8029 15.2854C14.0313 15.2843 14.2563 15.3412 14.4567 15.4509C14.7367 15.5992 14.94 15.6809 15.14 15.7075C15.5781 15.7651 16.0211 15.6464 16.3717 15.3775C16.6342 15.1759 16.8283 14.8392 17.2167 14.1667C17.39 13.8667 17.5242 13.6342 17.6242 13.4392M16.9492 11.1342C16.7541 11.0156 16.5923 10.8494 16.479 10.6512C16.3658 10.4529 16.3048 10.2291 16.3017 10.0009C16.3017 9.53502 16.555 9.11335 16.9492 8.86585C17.2167 8.69752 17.3892 8.56335 17.5125 8.40335C17.6458 8.22966 17.7435 8.03141 17.8001 7.81993C17.8567 7.60846 17.8711 7.3879 17.8425 7.17085C17.7992 6.84252 17.605 6.50585 17.2175 5.83335C16.8283 5.16085 16.6342 4.82502 16.3717 4.62252C16.198 4.48926 15.9997 4.39153 15.7883 4.33491C15.5768 4.27829 15.3562 4.26388 15.1392 4.29252C14.9392 4.31919 14.7367 4.40085 14.4558 4.54919C14.2556 4.6587 14.0307 4.71554 13.8025 4.71437C13.5742 4.71321 13.35 4.65407 13.1508 4.54252C12.9546 4.42577 12.7912 4.26105 12.676 4.06383C12.5608 3.8666 12.4977 3.64335 12.4925 3.41502C12.4808 3.09835 12.4508 2.88169 12.3733 2.69585C12.2896 2.4935 12.1668 2.30965 12.0119 2.15479C11.857 1.99993 11.6732 1.87711 11.4708 1.79335C11.165 1.66669 10.7767 1.66669 10 1.66669C9.22334 1.66669 8.83501 1.66669 8.52918 1.79335C8.32683 1.87711 8.14297 1.99993 7.98811 2.15479C7.83326 2.30965 7.71044 2.4935 7.62668 2.69585C7.55001 2.88169 7.51918 3.09835 7.50751 3.41502C7.50232 3.64335 7.43918 3.8666 7.32402 4.06383C7.20886 4.26105 7.04547 4.42577 6.84918 4.54252C6.64992 4.65422 6.42555 4.71344 6.19712 4.7146C5.9687 4.71577 5.74373 4.65885 5.54334 4.54919C5.26334 4.40085 5.06001 4.31919 4.86001 4.29252C4.42194 4.23491 3.97893 4.35361 3.62834 4.62252C3.36668 4.82502 3.17168 5.16085 2.78334 5.83335C2.61001 6.13335 2.47584 6.36585 2.37584 6.56085" stroke="white" stroke-width="1.5" stroke-linecap="round"/>
</svg>
